<svg width="35" height="25" viewBox="0 0 35 25" fill="none" xmlns="http://www.w3.org/2000/svg">
<path opacity="0.2" d="M0.597656 17.4375C0.597656 13.401 1.9388 9.97656 4.62109 7.16406C7.30339 4.32552 11.2747 2.20312 16.5352 0.796875V4.39062C14.8945 4.88542 13.4883 5.52344 12.3164 6.30469C11.1706 7.08594 10.2591 7.98438 9.58203 9C8.93099 9.98958 8.60547 10.9401 8.60547 11.8516C8.60547 12.4505 8.80078 12.9583 9.19141 13.375C9.60807 13.7656 10.4154 14.2734 11.6133 14.8984C13.6185 15.9661 14.6211 17.5807 14.6211 19.7422C14.6211 21.3307 14.0352 22.6068 12.8633 23.5703C11.7174 24.5078 10.194 24.9766 8.29297 24.9766C6.07943 24.9766 4.24349 24.2734 2.78516 22.8672C1.32682 21.4349 0.597656 19.625 0.597656 17.4375ZM18.1758 17.4375C18.1758 13.401 19.5169 9.97656 22.1992 7.16406C24.8815 4.32552 28.8529 2.20312 34.1133 0.796875V4.39062C32.4727 4.88542 31.0664 5.52344 29.8945 6.30469C28.7487 7.08594 27.8372 7.98438 27.1602 9C26.5091 9.98958 26.1836 10.9401 26.1836 11.8516C26.1836 12.4505 26.3789 12.9583 26.7695 13.375C27.1862 13.7656 27.9935 14.2734 29.1914 14.8984C31.1966 15.9661 32.1992 17.5807 32.1992 19.7422C32.1992 21.3307 31.6133 22.6068 30.4414 23.5703C29.2956 24.5078 27.7721 24.9766 25.8711 24.9766C23.6576 24.9766 21.8216 24.2734 20.3633 22.8672C18.9049 21.4349 18.1758 19.625 18.1758 17.4375Z" fill="#FF8C00"/>
</svg>
